PathFileType	4	(X/Y/Z)	SUBJ26_0_static_RCNL2025.trc
DataRate	CameraRate	NumFrames	NumMarkers	Units	OrigDataRate	OrigDataStartFrame	OrigNumFrames
100	100	11	25	mm	100	44	101
Frame#	Time	R_Shoulder			L_Shoulder			C7			J_Notch			R_Elbow			L_Elbow			R_Wrist			L_Wrist			R_Asis			L_Asis			Sacral			Thoracic			Sternum			R_Thigh_Lateral			R_Knee_Lateral			R_Shank_Lateral			R_Ankle_Lateral			R_Heel			R_Toe			L_Thigh_Lateral			L_Knee_Lateral			L_Shank_Lateral			L_Ankle_Lateral			L_Heel			L_Toe		
		X1	Y1	Z1	X2	Y2	Z2	X3	Y3	Z3	X4	Y4	Z4	X5	Y5	Z5	X6	Y6	Z6	X7	Y7	Z7	X8	Y8	Z8	X9	Y9	Z9	X10	Y10	Z10	X11	Y11	Z11	X12	Y12	Z12	X13	Y13	Z13	X14	Y14	Z14	X15	Y15	Z15	X16	Y16	Z16	X17	Y17	Z17	X18	Y18	Z18	X19	Y19	Z19	X20	Y20	Z20	X21	Y21	Z21	X22	Y22	Z22	X23	Y23	Z23	X24	Y24	Z24	X25	Y25	Z25
44	0.43000000	-218.690781	1339.201904	-62.657635	-241.428497	1354.160645	-382.950470	-306.256378	1386.716919	-207.732361	-153.118561	1304.227051	-232.636337	-286.093170	1016.564575	28.126684	-302.045654	1033.072876	-491.696442	-203.155800	780.541046	67.612619	-213.129723	807.297089	-538.571594	-140.634323	935.303650	-100.416252	-167.666153	932.016602	-400.381226	-357.238159	924.441101	-222.403702	-346.559418	1037.592285	-224.358673	-80.614372	1049.834961	-233.540955	-252.824112	593.124146	-49.143322	-274.415283	446.809357	-120.000938	-299.978912	297.070007	-77.967056	-303.043701	55.165943	-150.199707	-353.178284	40.775375	-210.915802	-178.549026	44.871613	-171.757645	-246.795288	614.041199	-435.271790	-278.697571	450.391449	-354.572021	-289.611450	268.517517	-419.386719	-295.810760	61.658867	-328.792908	-357.516785	39.048077	-280.052643	-175.208038	43.484158	-289.706879
45	0.44000000	-218.773651	1339.108154	-62.616104	-241.509491	1354.195923	-382.814301	-306.363037	1386.661011	-207.615494	-153.281525	1304.182129	-232.425018	-286.099091	1016.413269	28.104595	-302.095795	1033.168701	-491.824219	-203.318405	780.407715	67.455612	-213.264008	807.415588	-538.772217	-140.607422	935.373657	-100.313530	-167.741562	932.075256	-400.282074	-357.288300	924.403809	-222.349991	-346.709839	1037.563599	-224.357254	-80.658890	1049.850464	-233.445984	-253.045273	593.442993	-48.903942	-274.419708	446.774475	-119.959030	-299.991760	297.072205	-77.923302	-303.035309	55.164757	-150.202438	-353.211517	40.746433	-210.900391	-178.588577	44.888111	-171.777542	-246.818054	614.010010	-435.254456	-278.654816	450.342316	-354.486298	-289.648132	268.517151	-419.396027	-295.817963	61.684074	-328.763275	-357.487213	38.985920	-280.094421	-175.166382	43.417355	-289.677917
46	0.45000000	-219.065277	1339.044067	-62.427334	-241.556076	1354.230469	-382.729980	-306.449860	1386.629517	-207.573868	-153.365997	1304.233032	-232.285217	-286.225281	1016.315857	28.069670	-302.248199	1033.281006	-491.824860	-203.435501	780.303589	67.284138	-213.419151	807.546814	-538.978546	-140.632339	935.433411	-100.327133	-167.824936	932.127991	-400.357300	-357.274872	924.361023	-222.324890	-346.673187	1037.537476	-224.275177	-80.733322	1049.839111	-233.357864	-253.085648	593.382935	-48.960201	-274.505737	446.802399	-119.890892	-300.317200	297.449890	-77.601822	-303.042847	55.110504	-150.174469	-353.122681	40.730381	-210.922806	-178.614853	44.868546	-171.746216	-246.879852	614.020996	-435.148285	-278.620178	450.332947	-354.465607	-289.646881	268.505829	-419.441864	-295.814758	61.675442	-328.780487	-357.394958	38.849823	-280.176422	-175.182129	43.532776	-289.713623
47	0.46000000	-219.267029	1338.943237	-62.282543	-241.631241	1354.268555	-382.625031	-306.567871	1386.579102	-207.414612	-153.503693	1304.193481	-232.262665	-286.312134	1016.136414	28.010796	-302.352448	1033.407959	-491.880219	-203.590965	780.161865	67.167915	-213.537956	807.624847	-539.164337	-140.602432	935.471985	-100.302704	-167.925751	932.112427	-400.207367	-357.380493	924.391785	-222.305328	-346.708344	1037.518311	-224.354721	-80.942131	1049.846069	-233.294113	-253.151245	593.362976	-49.080101	-274.526123	446.785065	-119.902931	-300.210388	297.134644	-77.802536	-303.063934	55.087608	-150.219193	-353.094879	40.679546	-210.952820	-178.594955	44.851368	-171.761139	-246.885345	613.993896	-435.169403	-278.567780	450.356995	-354.549194	-289.610901	268.511017	-419.437378	-295.835205	61.665398	-328.745667	-357.485260	38.918819	-280.168457	-175.137222	43.547348	-289.760681
48	0.47000000	-219.454285	1338.874390	-62.119724	-241.688171	1354.285156	-382.521393	-306.579712	1386.555542	-207.360428	-153.599594	1304.167236	-232.163574	-286.570496	1016.057373	27.955338	-302.360077	1033.474609	-491.991119	-203.748512	780.038177	67.052387	-213.653381	807.746826	-539.333008	-140.503860	935.439697	-100.233620	-168.037384	932.105408	-400.229034	-357.386230	924.311829	-222.242844	-346.744568	1037.507080	-224.241119	-80.951820	1049.916504	-233.259018	-253.175583	593.379517	-49.066360	-274.519592	446.762970	-119.888313	-300.327118	297.399597	-77.643448	-303.122986	55.137135	-150.174835	-353.061646	40.618725	-210.987839	-178.560211	44.842457	-171.737183	-246.890671	614.031738	-435.139771	-278.566284	450.317871	-354.523102	-289.597870	268.425018	-419.461121	-295.814545	61.618347	-328.794464	-357.476135	38.933167	-280.088409	-175.077927	43.430042	-289.697876
49	0.48000000	-219.841141	1338.794678	-61.944435	-241.774261	1354.312134	-382.439789	-306.777130	1386.575806	-207.229752	-153.650284	1304.266479	-232.030502	-286.736694	1015.924133	27.931004	-302.455536	1033.568237	-492.021484	-203.977737	779.919891	66.940762	-213.715431	807.850555	-539.533997	-140.526855	935.544189	-100.329567	-168.028458	932.201782	-400.190308	-357.375244	924.298767	-222.247986	-346.821320	1037.470093	-224.267700	-80.972900	1049.974365	-233.226669	-253.011002	593.214966	-49.127361	-274.603516	446.759003	-119.855530	-300.438568	297.407135	-77.551582	-303.131287	55.122219	-150.164383	-353.157867	40.581562	-210.906586	-178.586975	44.849876	-171.765457	-246.854553	613.991455	-435.131927	-278.572388	450.356781	-354.513672	-289.622559	268.400330	-419.445618	-295.813354	61.557564	-328.771301	-357.478333	38.957668	-280.082428	-175.091660	43.449047	-289.668182
50	0.49000000	-219.997604	1338.721924	-61.794067	-241.940460	1354.310669	-382.429504	-306.879883	1386.554077	-207.165359	-153.719498	1304.257080	-231.951477	-286.886749	1015.874512	27.906429	-302.497650	1033.602783	-492.065063	-204.220100	779.894012	66.804190	-213.755539	807.970428	-539.746094	-140.788666	935.591919	-100.353065	-168.164612	932.241699	-400.218323	-357.541931	924.278259	-222.149475	-346.930603	1037.439331	-224.166855	-81.103447	1049.976074	-233.216125	-253.104691	593.395020	-49.055935	-274.617432	446.764648	-119.858124	-300.179047	297.055481	-77.768150	-303.118622	55.062920	-150.156998	-353.198792	40.646313	-210.871857	-178.561646	44.861813	-171.744186	-246.462540	614.068848	-434.898163	-278.561676	450.312775	-354.570953	-289.619934	268.390442	-419.443695	-295.814148	61.629501	-328.723602	-357.472717	38.899464	-280.088531	-175.082581	43.447685	-289.712158
51	0.50000000	-220.053986	1338.744141	-61.726772	-241.961029	1354.385254	-382.158905	-306.978790	1386.542969	-207.118408	-153.804443	1304.264160	-231.862427	-287.028717	1015.816223	27.827545	-302.597534	1033.754883	-492.055359	-204.368111	779.795776	66.669851	-213.852821	808.072021	-539.902985	-141.006821	935.602295	-100.391914	-168.197601	932.315247	-400.117279	-357.636169	924.298523	-222.177368	-346.934204	1037.438110	-224.153854	-81.197502	1049.998779	-233.166519	-253.195496	593.537964	-49.042076	-274.623901	446.775940	-119.856216	-300.370880	297.357941	-77.599396	-303.109863	55.051147	-150.191498	-353.169556	40.615810	-210.868912	-178.589676	44.824448	-171.715027	-246.827087	614.041443	-435.153351	-278.537811	450.285400	-354.521667	-289.608734	268.440430	-419.452148	-295.767914	61.595062	-328.719421	-357.352997	38.840210	-280.092377	-175.081253	43.502323	-289.647095
52	0.51000000	-220.145126	1338.692505	-61.695400	-242.021530	1354.479126	-382.139496	-307.024414	1386.584229	-206.968979	-154.010956	1304.257202	-231.793732	-287.272400	1015.861023	27.836630	-302.680481	1033.810059	-492.118073	-204.497078	779.777954	66.592672	-213.931808	808.139740	-540.009460	-141.134186	935.619629	-100.459625	-168.220322	932.327515	-400.083771	-357.718140	924.316711	-222.138031	-347.101562	1037.545654	-224.149918	-81.271812	1050.121948	-233.206360	-253.319885	593.498718	-48.893139	-274.596771	446.786224	-119.856644	-300.388458	297.482605	-77.564163	-303.042786	55.125450	-150.210327	-353.153381	40.626507	-210.893143	-178.569336	44.859653	-171.736053	-246.817566	613.997925	-435.121582	-278.542389	450.365540	-354.538574	-289.559509	268.446808	-419.429749	-295.836273	61.664078	-328.749298	-357.453064	38.964405	-280.103668	-175.114777	43.609276	-289.737732
53	0.52000000	-220.243484	1338.700806	-61.612396	-242.089294	1354.497559	-382.094452	-307.185333	1386.609497	-206.976273	-154.041550	1304.244141	-231.781174	-287.346588	1015.770386	27.770025	-302.754242	1033.843994	-492.213593	-204.724701	779.686218	66.530090	-213.925224	808.233307	-540.087891	-141.141830	935.621338	-100.437729	-168.378708	932.396484	-400.109558	-357.791016	924.347290	-222.232178	-347.089355	1037.508301	-224.175842	-81.347672	1050.136719	-233.121750	-253.237106	593.591614	-49.133415	-274.575806	446.852142	-119.864021	-300.148926	297.160004	-77.807983	-303.053436	55.102055	-150.213654	-353.115021	40.566013	-210.900055	-178.563171	44.807949	-171.777649	-246.790146	614.001038	-435.171661	-278.467468	450.290863	-354.510437	-289.551331	268.430725	-419.534943	-295.802856	61.649555	-328.741791	-357.361664	38.849957	-280.100433	-175.072128	43.537060	-289.660492
54	0.53000000	-220.378647	1338.632935	-61.588154	-242.104904	1354.489990	-382.160828	-307.270172	1386.639526	-206.896362	-154.100800	1304.249878	-231.705887	-287.540466	1015.707581	27.693626	-302.830505	1033.934692	-492.151459	-204.982414	779.601898	66.416071	-213.979004	808.339905	-540.184143	-141.184341	935.608459	-100.504341	-168.527481	932.369141	-400.131561	-357.931152	924.358459	-222.243103	-347.218781	1037.503174	-224.227310	-81.462990	1050.131226	-233.187393	-253.249863	593.554749	-49.131363	-274.646118	446.862518	-119.923462	-300.113129	297.109009	-77.826912	-303.117249	55.169205	-150.167633	-353.172913	40.656918	-210.931900	-178.550873	44.819363	-171.825394	-246.449310	614.045654	-435.004761	-278.503906	450.327271	-354.534058	-289.545898	268.360504	-419.536530	-295.792542	61.643559	-328.722687	-357.485992	38.987698	-280.064148	-175.130630	43.504269	-289.631104
